<svg id="Layer_1" data-name="Layer 1" xmlns="http://www.w3.org/2000/svg" viewBox="0 0 136.62 136.7"><defs><style>.cls-1,.cls-2{fill:none;stroke-width:5px;}.cls-1,.cls-2,.cls-3{stroke:#0c1f35;}.cls-2{stroke-linejoin:round;}.cls-3{fill:#0c1f35;}</style></defs><path class="cls-1" d="M11.55,6.83H127.23c2,0,3.68,1.21,3.68,2.69V94.26c0,1.48-1.65,2.69-3.68,2.69H11.55c-2,0-3.68-1.21-3.68-2.69V9.52C7.87,8,9.51,6.83,11.55,6.83Z"/><line id="Line_30" data-name="Line 30" class="cls-1" x1="28.76" y1="15.81" x2="122.04" y2="15.81"/><line id="Line_30-2" data-name="Line 30" class="cls-1" x1="15.9" y1="15.81" x2="24.77" y2="15.81"/><line id="Line_30-3" data-name="Line 30" class="cls-1" x1="30.28" y1="77.06" x2="69.39" y2="77.06"/><line id="Line_30-4" data-name="Line 30" class="cls-1" x1="15.9" y1="77.06" x2="25.82" y2="77.06"/><line id="Line_30-5" data-name="Line 30" class="cls-1" x1="30.28" y1="86.61" x2="69.39" y2="86.61"/><line id="Line_30-6" data-name="Line 30" class="cls-1" x1="15.9" y1="86.61" x2="25.82" y2="86.61"/><polygon class="cls-2" points="95.77 129.87 71.05 129.87 46.33 129.87 53.6 116.29 54.6 96.95 71.05 96.95 87.5 96.95 88.51 116.29 95.77 129.87"/><path class="cls-3" d="M78.52,77.66l15.62-6.91v3.9L82.87,79.23v.06l11.27,4.54v3.91L78.52,80.83Z"/><path class="cls-3" d="M96.63,89l6-23.2h3.68l-6,23.2Z"/><path class="cls-3" d="M123.64,81,108,87.74V83.87l11.58-4.58v-.06L108,74.62V70.75l15.61,6.78Z"/><rect id="Line_30-7" data-name="Line 30" class="cls-1" x="18.03" y="27.6" width="55" height="39.9"/><polyline class="cls-1" points="18.03 52.44 36.16 36.03 49.91 51.99 58.78 45.78 73.03 58.7"/><line id="Line_30-8" data-name="Line 30" class="cls-1" x1="93.19" y1="28.15" x2="121.19" y2="28.15"/><line id="Line_30-9" data-name="Line 30" class="cls-1" x1="80.33" y1="28.15" x2="89.2" y2="28.15"/><line id="Line_30-10" data-name="Line 30" class="cls-1" x1="93.19" y1="38.92" x2="121.19" y2="38.92"/><line id="Line_30-11" data-name="Line 30" class="cls-1" x1="80.33" y1="38.92" x2="89.2" y2="38.92"/><line id="Line_30-12" data-name="Line 30" class="cls-1" x1="93.19" y1="49.69" x2="121.19" y2="49.69"/><line id="Line_30-13" data-name="Line 30" class="cls-1" x1="80.33" y1="49.69" x2="89.2" y2="49.69"/></svg>