<svg id="Layer_1" data-name="Layer 1" xmlns="http://www.w3.org/2000/svg" viewBox="0 0 136.62 136.7"><defs><style>.cls-1{fill:#0c1f35;}.cls-2{fill:#fff;}</style></defs><path class="cls-1" d="M126.16,4.33H10.47a6.18,6.18,0,0,0-6.18,6.18V126.19a6.18,6.18,0,0,0,6.18,6.18H126.16a6.18,6.18,0,0,0,6.17-6.18V10.51A6.18,6.18,0,0,0,126.16,4.33Zm1.17,121.86a1.17,1.17,0,0,1-1.17,1.18H10.47a1.18,1.18,0,0,1-1.18-1.18V10.51a1.18,1.18,0,0,1,1.18-1.18H126.16a1.17,1.17,0,0,1,1.17,1.18Z"/><path class="cls-1" d="M81,105.79l-4.61-1.93,9.45-22.51a3.17,3.17,0,0,0-.06-2.56L68.31,41.93,50.81,78.79a3.17,3.17,0,0,0-.06,2.56l9.45,22.51-4.62,1.93-9.44-22.5a8.17,8.17,0,0,1,.15-6.64l22-46.38,22,46.38a8.17,8.17,0,0,1,.15,6.64Z"/><path class="cls-1" d="M53.84,99.66v19.78h29V99.66Zm24,14.78h-19v-9.78h19Z"/><rect class="cls-1" x="65.81" y="36.1" width="5" height="38.57"/><rect class="cls-1" x="64.51" y="70.88" width="7.59" height="7.59"/><path class="cls-1" d="M65.6,22.53v5c-.84,0-1.67.1-2.5.18s-1.67.18-2.5.3C43.07,30.55,29.08,41.58,25.29,55.68a23.75,23.75,0,0,0-.56,2.5,23.11,23.11,0,0,0-.34,2.5h-5c.06-.84.16-1.68.28-2.5s.29-1.68.49-2.5c2.79-12.17,12.06-22.44,24.7-28.21A55.34,55.34,0,0,1,60.6,23l1.54-.19,1-.09C63.93,22.63,64.76,22.57,65.6,22.53Z"/><path class="cls-1" d="M117.26,60.68h-5a23.11,23.11,0,0,0-.34-2.5,23.75,23.75,0,0,0-.56-2.5C107.55,41.58,93.56,30.55,76,28c-.82-.12-1.66-.22-2.5-.3s-1.66-.14-2.5-.18v-5c.84,0,1.67.1,2.5.17l1,.09L76,23a55.34,55.34,0,0,1,15.76,4.49c12.64,5.77,21.92,16,24.71,28.21.2.82.35,1.66.49,2.5S117.2,59.84,117.26,60.68Z"/><path class="cls-2" d="M16.55,58.18V68.6H27V58.18Zm7.92,7.92H19.05V60.68h5.42Z"/><path class="cls-1" d="M14.05,55.68V71.1H29.47V55.68Zm5,5h5.42V66.1H19.05Z"/><path class="cls-2" d="M109.66,58.18V68.6h10.42V58.18Zm7.92,7.92h-5.42V60.68h5.42Z"/><path class="cls-1" d="M107.16,55.68V71.1h15.42V55.68ZM117.58,66.1h-5.42V60.68h5.42Z"/><path class="cls-2" d="M63.1,19.76V30.18H73.52V19.76ZM71,27.68H65.6V22.26H71Z"/><path class="cls-1" d="M60.6,17.26V32.68H76V17.26ZM71,27.68H65.6V22.26H71Z"/><path class="cls-1" d="M115.57,27.47H74.49v-5h41.08a3,3,0,0,0,0,5Z"/><path class="cls-2" d="M116.38,19.76a4.59,4.59,0,0,0-4.08,2.71,5.77,5.77,0,0,0,0,5,4.61,4.61,0,0,0,4.08,2.71A5,5,0,0,0,121,25,5,5,0,0,0,116.38,19.76Zm0,7.92a1.63,1.63,0,0,1-.81-.21,3,3,0,0,1,0-5,1.63,1.63,0,0,1,.81-.21A2.52,2.52,0,0,1,118.54,25,2.52,2.52,0,0,1,116.38,27.68Z"/><path class="cls-1" d="M116.38,17.26a7.22,7.22,0,0,0-6.76,5.21,8.21,8.21,0,0,0,0,5,7.22,7.22,0,0,0,6.76,5.21A7.46,7.46,0,0,0,123.54,25,7.46,7.46,0,0,0,116.38,17.26Zm0,10.42a1.63,1.63,0,0,1-.81-.21,3,3,0,0,1,0-5,1.63,1.63,0,0,1,.81-.21A2.52,2.52,0,0,1,118.54,25,2.52,2.52,0,0,1,116.38,27.68Z"/><path class="cls-1" d="M62.14,22.47v5H21.05a3,3,0,0,0,0-5Z"/><path class="cls-2" d="M24.33,22.47a4.6,4.6,0,0,0-4.09-2.71A5,5,0,0,0,15.59,25a5,5,0,0,0,4.65,5.21,4.61,4.61,0,0,0,4.09-2.71,5.77,5.77,0,0,0,0-5Zm-4.09,5.21A2.52,2.52,0,0,1,18.09,25a2.51,2.51,0,0,1,2.15-2.71,1.63,1.63,0,0,1,.81.21,3,3,0,0,1,0,5A1.66,1.66,0,0,1,20.24,27.68Z"/><path class="cls-1" d="M27,22.47a7.22,7.22,0,0,0-6.77-5.21A7.46,7.46,0,0,0,13.09,25a7.46,7.46,0,0,0,7.15,7.71A7.22,7.22,0,0,0,27,27.47a8.21,8.21,0,0,0,0-5ZM22.4,25a2.83,2.83,0,0,1-1.35,2.5,1.66,1.66,0,0,1-.81.21A2.52,2.52,0,0,1,18.09,25a2.51,2.51,0,0,1,2.15-2.71,1.63,1.63,0,0,1,.81.21A2.82,2.82,0,0,1,22.4,25Z"/></svg>