<svg id="Layer_1" data-name="Layer 1" xmlns="http://www.w3.org/2000/svg" viewBox="0 0 136.62 136.7"><defs><style>.cls-1{fill:none;stroke:#0c1f35;stroke-width:5px;}.cls-2{fill:#0c1f35;}</style></defs><line id="Line_31" data-name="Line 31" class="cls-1" x1="13.16" y1="73.56" x2="54.02" y2="73.56"/><line id="Line_31-2" data-name="Line 31" class="cls-1" x1="13.16" y1="83.87" x2="54.02" y2="83.87"/><line id="Line_31-3" data-name="Line 31" class="cls-1" x1="13.16" y1="94.17" x2="45.51" y2="94.17"/><line id="Line_31-4" data-name="Line 31" class="cls-1" x1="82.6" y1="79.28" x2="123.46" y2="79.28"/><line id="Line_31-5" data-name="Line 31" class="cls-1" x1="82.6" y1="89.58" x2="123.46" y2="89.58"/><path class="cls-1" d="M59.69,120.67v5.18a3.57,3.57,0,0,1-3.57,3.58H9.67a3.58,3.58,0,0,1-3.58-3.58V10A3.58,3.58,0,0,1,9.67,6.39H56.12A3.57,3.57,0,0,1,59.69,10v95.7"/><rect class="cls-1" x="14.07" y="106.38" width="37.64" height="13.59" rx="4.68"/><rect class="cls-1" x="84.21" y="106.38" width="37.64" height="13.59" rx="4.68"/><line id="Line_30" data-name="Line 30" class="cls-1" x1="6.09" y1="23.02" x2="61.09" y2="23.02"/><line id="Line_30-2" data-name="Line 30" class="cls-1" x1="6.09" y1="62.92" x2="61.09" y2="62.92"/><line id="Line_30-3" data-name="Line 30" class="cls-1" x1="47.28" y1="14.79" x2="54.02" y2="14.79"/><line id="Line_30-4" data-name="Line 30" class="cls-1" x1="13.16" y1="14.79" x2="22.03" y2="14.79"/><line id="Line_30-5" data-name="Line 30" class="cls-1" x1="116.02" y1="14.79" x2="122.76" y2="14.79"/><line id="Line_30-6" data-name="Line 30" class="cls-1" x1="81.9" y1="14.79" x2="90.77" y2="14.79"/><rect class="cls-1" x="75.53" y="6.39" width="53.6" height="123.04" rx="3.58"/><line id="Line_30-7" data-name="Line 30" class="cls-1" x1="75.53" y1="23.02" x2="130.53" y2="23.02"/><polyline class="cls-1" points="6.09 47.85 24.22 31.44 37.97 47.41 46.84 41.2 59.69 54.5"/><path class="cls-2" d="M65.07,115.67H51.71v-5H65.07a.55.55,0,0,0,.55-.55V36a5.56,5.56,0,0,1,5.55-5.55h4.36v5H71.17a.55.55,0,0,0-.55.55v74.1A5.56,5.56,0,0,1,65.07,115.67Z"/><circle class="cls-1" cx="103.03" cy="51.15" r="18.18"/><polyline class="cls-1" points="90.29 38.19 103.03 51.15 92.36 65.87"/><line class="cls-1" x1="103.03" y1="51.15" x2="121.11" y2="49.25"/></svg>