<svg id="Layer_1" data-name="Layer 1" xmlns="http://www.w3.org/2000/svg" viewBox="0 0 136.62 136.7"><defs><style>.cls-1{fill:none;stroke:#0c1f35;stroke-width:5px;}</style></defs><rect class="cls-1" x="19.62" y="32.2" width="49.77" height="49.77"/><rect class="cls-1" x="7.87" y="6.39" width="123.04" height="123.04" rx="3.68"/><line id="Line_30" data-name="Line 30" class="cls-1" x1="17" y1="91.94" x2="72" y2="91.94"/><line id="Line_30-2" data-name="Line 30" class="cls-1" x1="92.11" y1="32.97" x2="120.11" y2="32.97"/><line id="Line_30-3" data-name="Line 30" class="cls-1" x1="79.26" y1="32.97" x2="88.12" y2="32.97"/><line id="Line_30-4" data-name="Line 30" class="cls-1" x1="50.25" y1="18.78" x2="120.11" y2="18.78"/><line id="Line_30-5" data-name="Line 30" class="cls-1" x1="18.17" y1="18.78" x2="40.29" y2="18.78"/><line id="Line_30-6" data-name="Line 30" class="cls-1" x1="92.11" y1="50.2" x2="120.11" y2="50.2"/><line id="Line_30-7" data-name="Line 30" class="cls-1" x1="79.26" y1="50.2" x2="88.12" y2="50.2"/><line id="Line_30-8" data-name="Line 30" class="cls-1" x1="92.11" y1="66.08" x2="120.11" y2="66.08"/><line id="Line_30-9" data-name="Line 30" class="cls-1" x1="79.26" y1="66.08" x2="88.12" y2="66.08"/><line id="Line_31" data-name="Line 31" class="cls-1" x1="17" y1="103.27" x2="64" y2="103.27"/><line id="Line_32" data-name="Line 32" class="cls-1" x1="17" y1="114.6" x2="72" y2="114.6"/><path class="cls-1" d="M61.47,66.37V71.8H27.34V66.37c0-3.33,3.94-6.21,9.64-7.57a.82.82,0,0,0,.4-1.38,9.8,9.8,0,1,1,14,0,.83.83,0,0,0,.4,1.39C57.53,60.16,61.47,63,61.47,66.37Z"/><circle class="cls-1" cx="86.57" cy="110.59" r="7.32"/><circle class="cls-1" cx="112.79" cy="110.59" r="7.32"/></svg>